{"glyphs":{"0":{"ha":882,"x_min":0,"x_max":930,"o":"m 117 949 l 930 949 l 814 0 l 0 0 l 117 949 m 355 678 l 304 271 l 576 271 l 626 678 l 355 678 z "},"1":{"ha":339,"x_min":0,"x_max":388,"o":"m 271 0 l 0 0 l 117 949 l 388 949 l 271 0 z "},"2":{"ha":882,"x_min":0,"x_max":930,"o":"m 626 678 l 83 678 l 117 949 l 930 949 l 855 339 l 313 339 l 304 271 l 847 271 l 814 0 l 0 0 l 75 610 l 618 610 l 626 678 z "},"3":{"ha":882,"x_min":0,"x_max":930,"o":"m 0 0 l 33 271 l 576 271 l 584 339 l 41 339 l 75 610 l 618 610 l 626 678 l 83 678 l 117 949 l 930 949 l 814 0 l 0 0 z "},"4":{"ha":882,"x_min":41,"x_max":930,"o":"m 117 949 l 388 949 l 347 610 l 618 610 l 659 949 l 930 949 l 814 0 l 543 0 l 584 339 l 41 339 l 117 949 z "},"5":{"ha":882,"x_min":0,"x_max":930,"o":"m 930 949 l 897 678 l 355 678 l 347 610 l 889 610 l 814 0 l 0 0 l 33 271 l 576 271 l 584 339 l 41 339 l 117 949 l 930 949 z "},"6":{"ha":882,"x_min":0,"x_max":930,"o":"m 930 949 l 897 678 l 355 678 l 347 610 l 889 610 l 814 0 l 0 0 l 117 949 l 930 949 m 304 271 l 576 271 l 584 339 l 313 339 l 304 271 z "},"7":{"ha":882,"x_min":0,"x_max":930,"o":"m 626 678 l 83 678 l 117 949 l 930 949 l 855 339 l 313 339 l 271 0 l 0 0 l 75 610 l 618 610 l 626 678 z "},"8":{"ha":882,"x_min":0,"x_max":930,"o":"m 930 949 l 814 0 l 0 0 l 117 949 l 930 949 m 584 339 l 313 339 l 304 271 l 576 271 l 584 339 m 626 678 l 355 678 l 347 610 l 618 610 l 626 678 z "},"9":{"ha":882,"x_min":0,"x_max":930,"o":"m 626 678 l 355 678 l 347 610 l 618 610 l 626 678 m 930 949 l 814 0 l 0 0 l 33 271 l 576 271 l 584 339 l 41 339 l 117 949 l 930 949 z "},"\u0000":{"ha":0,"x_min":0,"x_max":0,"o":""},"\u001d":{"ha":0,"x_min":0,"x_max":0,"o":""}," ":{"ha":271,"x_min":0,"x_max":0,"o":""}," ":{"ha":271,"x_min":0,"x_max":0,"o":""},"!":{"ha":339,"x_min":0,"x_max":388,"o":"m 271 0 l 0 0 l 33 271 l 304 271 l 271 0 m 313 339 l 41 339 l 117 949 l 388 949 l 313 339 z "},"\"":{"ha":678,"x_min":66,"x_max":727,"o":"m 338 543 l 66 543 l 117 949 l 388 949 l 338 543 m 677 543 l 406 543 l 456 949 l 727 949 l 677 543 z "},"#":{"ha":882,"x_min":17,"x_max":913,"o":"m 406 543 l 389 407 l 525 407 l 541 543 l 406 543 m 118 407 l 134 543 l 66 543 l 100 814 l 168 814 l 184 949 l 456 949 l 439 814 l 574 814 l 591 949 l 863 949 l 846 814 l 913 814 l 880 543 l 812 543 l 796 407 l 864 407 l 831 136 l 763 136 l 746 0 l 475 0 l 492 136 l 356 136 l 339 0 l 68 0 l 85 136 l 17 136 l 50 407 l 118 407 z "},"$":{"ha":882,"x_min":0,"x_max":930,"o":"m 659 949 l 930 949 l 897 678 l 355 678 l 347 610 l 889 610 l 814 0 l 543 0 l 526 -136 l 254 -136 l 271 0 l 0 0 l 33 271 l 576 271 l 584 339 l 41 339 l 117 949 l 388 949 l 404 1085 l 675 1085 l 659 949 z "},"%":{"ha":882,"x_min":-42,"x_max":972,"o":"m -42 0 l 659 949 l 972 949 l 271 0 l -42 0 m 814 0 l 543 0 l 576 271 l 847 271 l 814 0 m 355 678 l 83 678 l 117 949 l 388 949 l 355 678 z "},"&":{"ha":882,"x_min":0,"x_max":889,"o":"m 117 949 l 524 949 l 490 678 l 355 678 l 347 610 l 550 610 l 566 746 l 838 746 l 821 610 l 889 610 l 855 339 l 787 339 l 779 271 l 847 271 l 814 0 l 0 0 l 117 949 m 313 339 l 304 271 l 508 271 l 516 339 l 313 339 z "},"'":{"ha":339,"x_min":66,"x_max":388,"o":"m 338 543 l 66 543 l 117 949 l 388 949 l 338 543 z "},"(":{"ha":543,"x_min":-8,"x_max":600,"o":"m 600 1017 l 566 746 l 363 746 l 296 203 l 500 203 l 467 -68 l -8 -68 l 125 1017 l 600 1017 z "},")":{"ha":543,"x_min":-8,"x_max":600,"o":"m 125 1017 l 600 1017 l 467 -68 l -8 -68 l 25 203 l 229 203 l 295 746 l 92 746 l 125 1017 z "},"*":{"ha":543,"x_min":143,"x_max":583,"o":"m 482 610 l 473 543 l 202 543 l 211 610 l 143 610 l 176 882 l 244 882 l 252 949 l 524 949 l 515 882 l 583 882 l 550 610 l 482 610 z "},"+":{"ha":678,"x_min":41,"x_max":686,"o":"m 516 610 l 686 610 l 652 339 l 482 339 l 462 170 l 191 170 l 211 339 l 41 339 l 75 610 l 245 610 l 265 780 l 536 780 l 516 610 z "},",":{"ha":339,"x_min":-17,"x_max":304,"o":"m 254 -136 l -17 -136 l 33 271 l 304 271 l 254 -136 z "},"-":{"ha":678,"x_min":41,"x_max":686,"o":"m 652 339 l 41 339 l 75 610 l 686 610 l 652 339 z "},"­":{"ha":678,"x_min":41,"x_max":686,"o":"m 652 339 l 41 339 l 75 610 l 686 610 l 652 339 z "},".":{"ha":339,"x_min":0,"x_max":304,"o":"m 271 0 l 0 0 l 33 271 l 304 271 l 271 0 z "},"/":{"ha":882,"x_min":-42,"x_max":972,"o":"m -42 0 l 659 949 l 972 949 l 271 0 l -42 0 z "},":":{"ha":339,"x_min":0,"x_max":357,"o":"m 271 0 l 0 0 l 33 271 l 304 271 l 271 0 m 323 423 l 52 423 l 85 694 l 357 694 l 323 423 z "},";":{"ha":339,"x_min":-17,"x_max":357,"o":"m 254 -136 l -17 -136 l 33 271 l 304 271 l 254 -136 m 323 423 l 52 423 l 85 694 l 357 694 l 323 423 z "},";":{"ha":339,"x_min":-17,"x_max":357,"o":"m 254 -136 l -17 -136 l 33 271 l 304 271 l 254 -136 m 323 423 l 52 423 l 85 694 l 357 694 l 323 423 z "},"<":{"ha":543,"x_min":-8,"x_max":600,"o":"m 600 1017 l 566 746 l 363 746 l 296 203 l 500 203 l 467 -68 l -8 -68 l 125 1017 l 600 1017 z "},"=":{"ha":678,"x_min":21,"x_max":706,"o":"m 631 170 l 21 170 l 54 441 l 665 441 l 631 170 m 673 509 l 62 509 l 96 780 l 706 780 l 673 509 z "},">":{"ha":543,"x_min":-8,"x_max":600,"o":"m 125 1017 l 600 1017 l 467 -68 l -8 -68 l 25 203 l 229 203 l 295 746 l 92 746 l 125 1017 z "},"?":{"ha":882,"x_min":0,"x_max":930,"o":"m 626 678 l 83 678 l 117 949 l 930 949 l 855 339 l 41 339 l 75 610 l 618 610 l 626 678 m 271 0 l 0 0 l 33 271 l 304 271 l 271 0 z "},"@":{"ha":882,"x_min":0,"x_max":930,"o":"m 304 271 l 847 271 l 814 0 l 0 0 l 117 949 l 930 949 l 855 339 l 380 339 l 414 610 l 618 610 l 626 678 l 355 678 l 304 271 z "},"A":{"ha":882,"x_min":0,"x_max":930,"o":"m 117 949 l 930 949 l 814 0 l 543 0 l 568 203 l 296 203 l 271 0 l 0 0 l 117 949 m 355 678 l 330 475 l 601 475 l 626 678 l 355 678 z "},"B":{"ha":882,"x_min":0,"x_max":930,"o":"m 930 949 l 814 0 l 0 0 l 117 949 l 930 949 m 584 339 l 313 339 l 304 271 l 576 271 l 584 339 m 626 678 l 355 678 l 347 610 l 618 610 l 626 678 z "},"C":{"ha":882,"x_min":0,"x_max":930,"o":"m 930 949 l 897 678 l 355 678 l 304 271 l 847 271 l 814 0 l 0 0 l 117 949 l 930 949 z "},"D":{"ha":882,"x_min":0,"x_max":930,"o":"m 75 610 l 347 610 l 304 271 l 576 271 l 626 678 l 83 678 l 117 949 l 930 949 l 814 0 l 0 0 l 75 610 z "},"E":{"ha":882,"x_min":0,"x_max":930,"o":"m 304 271 l 847 271 l 814 0 l 0 0 l 117 949 l 930 949 l 897 678 l 355 678 l 347 610 l 889 610 l 855 339 l 313 339 l 304 271 z "},"F":{"ha":882,"x_min":0,"x_max":930,"o":"m 930 949 l 897 678 l 355 678 l 347 610 l 889 610 l 855 339 l 313 339 l 271 0 l 0 0 l 117 949 l 930 949 z "},"G":{"ha":882,"x_min":0,"x_max":930,"o":"m 930 949 l 897 678 l 355 678 l 304 271 l 576 271 l 584 339 l 380 339 l 414 610 l 889 610 l 814 0 l 0 0 l 117 949 l 930 949 z "},"H":{"ha":882,"x_min":0,"x_max":930,"o":"m 313 339 l 271 0 l 0 0 l 117 949 l 388 949 l 347 610 l 618 610 l 659 949 l 930 949 l 814 0 l 543 0 l 584 339 l 313 339 z "},"I":{"ha":339,"x_min":0,"x_max":388,"o":"m 271 0 l 0 0 l 117 949 l 388 949 l 271 0 z "},"J":{"ha":882,"x_min":0,"x_max":930,"o":"m 576 271 l 659 949 l 930 949 l 814 0 l 0 0 l 33 271 l 576 271 z "},"K":{"ha":882,"x_min":0,"x_max":930,"o":"m 347 610 l 618 610 l 659 949 l 930 949 l 855 339 l 702 339 l 856 0 l 543 0 l 389 339 l 313 339 l 271 0 l 0 0 l 117 949 l 388 949 l 347 610 z "},"L":{"ha":882,"x_min":0,"x_max":847,"o":"m 117 949 l 388 949 l 304 271 l 847 271 l 814 0 l 0 0 l 117 949 z "},"M":{"ha":1153,"x_min":0,"x_max":1202,"o":"m 1085 0 l 814 0 l 897 678 l 762 678 l 678 0 l 407 0 l 490 678 l 355 678 l 271 0 l 0 0 l 117 949 l 1202 949 l 1085 0 z "},"N":{"ha":882,"x_min":0,"x_max":930,"o":"m 349 637 l 271 0 l 0 0 l 117 949 l 388 949 l 640 793 l 659 949 l 930 949 l 814 0 l 543 0 l 602 480 l 349 637 z "},"O":{"ha":882,"x_min":0,"x_max":930,"o":"m 117 949 l 930 949 l 814 0 l 0 0 l 117 949 m 355 678 l 304 271 l 576 271 l 626 678 l 355 678 z "},"P":{"ha":882,"x_min":0,"x_max":930,"o":"m 930 949 l 855 339 l 313 339 l 271 0 l 0 0 l 117 949 l 930 949 m 626 678 l 355 678 l 347 610 l 618 610 l 626 678 z "},"Q":{"ha":882,"x_min":0,"x_max":930,"o":"m 355 678 l 304 271 l 576 271 l 626 678 l 355 678 m 117 949 l 930 949 l 814 0 l 709 0 l 771 -136 l 458 -136 l 397 0 l 0 0 l 117 949 z "},"R":{"ha":882,"x_min":0,"x_max":930,"o":"m 930 949 l 855 339 l 702 339 l 856 0 l 543 0 l 389 339 l 313 339 l 271 0 l 0 0 l 117 949 l 930 949 m 626 678 l 355 678 l 347 610 l 618 610 l 626 678 z "},"S":{"ha":882,"x_min":0,"x_max":930,"o":"m 930 949 l 897 678 l 355 678 l 347 610 l 889 610 l 814 0 l 0 0 l 33 271 l 576 271 l 584 339 l 41 339 l 117 949 l 930 949 z "},"T":{"ha":882,"x_min":83,"x_max":930,"o":"m 626 678 l 543 0 l 271 0 l 355 678 l 83 678 l 117 949 l 930 949 l 897 678 l 626 678 z "},"U":{"ha":882,"x_min":0,"x_max":930,"o":"m 117 949 l 388 949 l 304 271 l 576 271 l 659 949 l 930 949 l 814 0 l 0 0 l 117 949 z "},"V":{"ha":882,"x_min":8,"x_max":930,"o":"m 117 949 l 388 949 l 309 307 l 574 262 l 659 949 l 930 949 l 806 -68 l 8 68 l 117 949 z "},"W":{"ha":1153,"x_min":0,"x_max":1202,"o":"m 117 949 l 388 949 l 304 271 l 440 271 l 524 949 l 795 949 l 711 271 l 847 271 l 930 949 l 1202 949 l 1085 0 l 0 0 l 117 949 z "},"X":{"ha":882,"x_min":-42,"x_max":972,"o":"m 433 220 l 271 0 l -42 0 l 309 475 l 75 949 l 387 949 l 496 728 l 659 949 l 972 949 l 621 475 l 855 0 l 542 0 l 433 220 z "},"Y":{"ha":882,"x_min":41,"x_max":930,"o":"m 117 949 l 388 949 l 347 610 l 618 610 l 659 949 l 930 949 l 855 339 l 584 339 l 543 0 l 271 0 l 313 339 l 41 339 l 117 949 z "},"Z":{"ha":882,"x_min":0,"x_max":930,"o":"m 626 678 l 83 678 l 117 949 l 930 949 l 855 339 l 313 339 l 304 271 l 847 271 l 814 0 l 0 0 l 75 610 l 618 610 l 626 678 z "},"[":{"ha":543,"x_min":-8,"x_max":600,"o":"m 600 1017 l 566 746 l 363 746 l 296 203 l 500 203 l 467 -68 l -8 -68 l 125 1017 l 600 1017 z "},"\\":{"ha":882,"x_min":75,"x_max":855,"o":"m 855 0 l 542 0 l 75 949 l 387 949 l 855 0 z "},"]":{"ha":543,"x_min":-8,"x_max":600,"o":"m 125 1017 l 600 1017 l 467 -68 l -8 -68 l 25 203 l 229 203 l 295 746 l 92 746 l 125 1017 z "},"^":{"ha":339,"x_min":66,"x_max":388,"o":"m 338 543 l 66 543 l 117 949 l 388 949 l 338 543 z "},"_":{"ha":882,"x_min":0,"x_max":847,"o":"m 814 0 l 0 0 l 33 271 l 847 271 l 814 0 z "},"`":{"ha":339,"x_min":66,"x_max":388,"o":"m 338 543 l 66 543 l 117 949 l 388 949 l 338 543 z "},"a":{"ha":882,"x_min":0,"x_max":930,"o":"m 117 949 l 930 949 l 814 0 l 543 0 l 568 203 l 296 203 l 271 0 l 0 0 l 117 949 m 355 678 l 330 475 l 601 475 l 626 678 l 355 678 z "},"b":{"ha":882,"x_min":0,"x_max":930,"o":"m 930 949 l 814 0 l 0 0 l 117 949 l 930 949 m 584 339 l 313 339 l 304 271 l 576 271 l 584 339 m 626 678 l 355 678 l 347 610 l 618 610 l 626 678 z "},"c":{"ha":882,"x_min":0,"x_max":930,"o":"m 930 949 l 897 678 l 355 678 l 304 271 l 847 271 l 814 0 l 0 0 l 117 949 l 930 949 z "},"d":{"ha":882,"x_min":0,"x_max":930,"o":"m 75 610 l 347 610 l 304 271 l 576 271 l 626 678 l 83 678 l 117 949 l 930 949 l 814 0 l 0 0 l 75 610 z "},"e":{"ha":882,"x_min":0,"x_max":930,"o":"m 304 271 l 847 271 l 814 0 l 0 0 l 117 949 l 930 949 l 897 678 l 355 678 l 347 610 l 889 610 l 855 339 l 313 339 l 304 271 z "},"f":{"ha":882,"x_min":0,"x_max":930,"o":"m 930 949 l 897 678 l 355 678 l 347 610 l 889 610 l 855 339 l 313 339 l 271 0 l 0 0 l 117 949 l 930 949 z "},"g":{"ha":882,"x_min":0,"x_max":930,"o":"m 930 949 l 897 678 l 355 678 l 304 271 l 576 271 l 584 339 l 380 339 l 414 610 l 889 610 l 814 0 l 0 0 l 117 949 l 930 949 z "},"h":{"ha":882,"x_min":0,"x_max":930,"o":"m 313 339 l 271 0 l 0 0 l 117 949 l 388 949 l 347 610 l 618 610 l 659 949 l 930 949 l 814 0 l 543 0 l 584 339 l 313 339 z "},"i":{"ha":339,"x_min":0,"x_max":388,"o":"m 271 0 l 0 0 l 117 949 l 388 949 l 271 0 z "},"j":{"ha":882,"x_min":0,"x_max":930,"o":"m 576 271 l 659 949 l 930 949 l 814 0 l 0 0 l 33 271 l 576 271 z "},"k":{"ha":882,"x_min":0,"x_max":930,"o":"m 347 610 l 618 610 l 659 949 l 930 949 l 855 339 l 702 339 l 856 0 l 543 0 l 389 339 l 313 339 l 271 0 l 0 0 l 117 949 l 388 949 l 347 610 z "},"l":{"ha":882,"x_min":0,"x_max":847,"o":"m 117 949 l 388 949 l 304 271 l 847 271 l 814 0 l 0 0 l 117 949 z "},"m":{"ha":1153,"x_min":0,"x_max":1202,"o":"m 1085 0 l 814 0 l 897 678 l 762 678 l 678 0 l 407 0 l 490 678 l 355 678 l 271 0 l 0 0 l 117 949 l 1202 949 l 1085 0 z "},"n":{"ha":882,"x_min":0,"x_max":930,"o":"m 349 637 l 271 0 l 0 0 l 117 949 l 388 949 l 640 793 l 659 949 l 930 949 l 814 0 l 543 0 l 602 480 l 349 637 z "},"o":{"ha":882,"x_min":0,"x_max":930,"o":"m 117 949 l 930 949 l 814 0 l 0 0 l 117 949 m 355 678 l 304 271 l 576 271 l 626 678 l 355 678 z "},"p":{"ha":882,"x_min":0,"x_max":930,"o":"m 930 949 l 855 339 l 313 339 l 271 0 l 0 0 l 117 949 l 930 949 m 626 678 l 355 678 l 347 610 l 618 610 l 626 678 z "},"q":{"ha":882,"x_min":0,"x_max":930,"o":"m 355 678 l 304 271 l 576 271 l 626 678 l 355 678 m 117 949 l 930 949 l 814 0 l 709 0 l 771 -136 l 458 -136 l 397 0 l 0 0 l 117 949 z "},"r":{"ha":882,"x_min":0,"x_max":930,"o":"m 930 949 l 855 339 l 702 339 l 856 0 l 543 0 l 389 339 l 313 339 l 271 0 l 0 0 l 117 949 l 930 949 m 626 678 l 355 678 l 347 610 l 618 610 l 626 678 z "},"s":{"ha":882,"x_min":0,"x_max":930,"o":"m 930 949 l 897 678 l 355 678 l 347 610 l 889 610 l 814 0 l 0 0 l 33 271 l 576 271 l 584 339 l 41 339 l 117 949 l 930 949 z "},"t":{"ha":882,"x_min":83,"x_max":930,"o":"m 626 678 l 543 0 l 271 0 l 355 678 l 83 678 l 117 949 l 930 949 l 897 678 l 626 678 z "},"u":{"ha":882,"x_min":0,"x_max":930,"o":"m 117 949 l 388 949 l 304 271 l 576 271 l 659 949 l 930 949 l 814 0 l 0 0 l 117 949 z "},"v":{"ha":882,"x_min":8,"x_max":930,"o":"m 117 949 l 388 949 l 309 307 l 574 262 l 659 949 l 930 949 l 806 -68 l 8 68 l 117 949 z "},"w":{"ha":1153,"x_min":0,"x_max":1202,"o":"m 117 949 l 388 949 l 304 271 l 440 271 l 524 949 l 795 949 l 711 271 l 847 271 l 930 949 l 1202 949 l 1085 0 l 0 0 l 117 949 z "},"x":{"ha":882,"x_min":-42,"x_max":972,"o":"m 433 220 l 271 0 l -42 0 l 309 475 l 75 949 l 387 949 l 496 728 l 659 949 l 972 949 l 621 475 l 855 0 l 542 0 l 433 220 z "},"y":{"ha":882,"x_min":41,"x_max":930,"o":"m 117 949 l 388 949 l 347 610 l 618 610 l 659 949 l 930 949 l 855 339 l 584 339 l 543 0 l 271 0 l 313 339 l 41 339 l 117 949 z "},"z":{"ha":882,"x_min":0,"x_max":930,"o":"m 626 678 l 83 678 l 117 949 l 930 949 l 855 339 l 313 339 l 304 271 l 847 271 l 814 0 l 0 0 l 75 610 l 618 610 l 626 678 z "},"{":{"ha":678,"x_min":41,"x_max":735,"o":"m 211 610 l 260 1017 l 735 1017 l 702 746 l 498 746 l 432 203 l 635 203 l 602 -68 l 127 -68 l 177 339 l 41 339 l 75 610 l 211 610 z "},"|":{"ha":339,"x_min":0,"x_max":388,"o":"m 271 0 l 0 0 l 117 949 l 388 949 l 271 0 z "},"}":{"ha":678,"x_min":-8,"x_max":686,"o":"m 516 339 l 467 -68 l -8 -68 l 25 203 l 229 203 l 295 746 l 92 746 l 125 1017 l 600 1017 l 550 610 l 686 610 l 652 339 l 516 339 z "},"~":{"ha":678,"x_min":41,"x_max":686,"o":"m 652 339 l 41 339 l 75 610 l 686 610 l 652 339 z "}}}
